<svg xmlns="http://www.w3.org/2000/svg" viewBox="0 0 64 64" fill="currentColor" aria-hidden="true">
  <!-- Front car silhouette (matches icon-set style) -->
  <path d="M16 44c-2.2 0-4 1.8-4 4s1.8 4 4 4 4-1.8 4-4-1.8-4-4-4zm32 0c-2.2 0-4 1.8-4 4s1.8 4 4 4 4-1.8 4-4-1.8-4-4-4z"/>
  <path d="M52.5 28.2l-3.8-8.6C47.8 17.2 45.6 16 43.2 16H20.8c-2.4 0-4.6 1.2-5.5 3.6l-3.8 8.6C9.2 29.5 8 31.6 8 34v8c0 1.1.9 2 2 2h2.2c.6-3.4 3.6-6 7.2-6s6.6 2.6 7.2 6h14.8c.6-3.4 3.6-6 7.2-6s6.6 2.6 7.2 6H54c1.1 0 2-.9 2-2v-8c0-2.4-1.2-4.5-3.5-5.8zM18.5 26.2l2.6-5.9c.3-.7 1-1.1 1.7-1.1h18.4c.7 0 1.4.4 1.7 1.1l2.6 5.9c.1.3-.1.6-.4.6H18.9c-.3 0-.5-.3-.4-.6z"/>
  <path d="M22 28.5h-4.5c-.6 0-1 .4-1 1s.4 1 1 1H22c.6 0 1-.4 1-1s-.4-1-1-1zm24.5 0H42c-.6 0-1 .4-1 1s.4 1 1 1h4.5c.6 0 1-.4 1-1s-.4-1-1-1z" opacity=".35"/>
</svg>
